<svg version="1.1" id="Layer_1" xmlns="http://www.w3.org/2000/svg" xmlns:xlink="http://www.w3.org/1999/xlink" x="0px" y="0px"
	 width="100%" viewBox="0 0 512 512" enable-background="new 0 0 512 512" xml:space="preserve">
<path fill="#000000" opacity="1.000000" stroke="none" 
	d="
M513.000000,185.000000 
	C513.000000,294.640015 513.000000,403.780029 513.000000,512.960022 
	C342.401642,512.960022 171.803268,512.960022 1.102453,512.960022 
	C1.102453,342.443359 1.102453,171.886612 1.102453,1.164938 
	C171.666534,1.164938 342.333252,1.164938 513.000000,1.164938 
	C513.000000,62.196690 513.000000,123.348343 513.000000,185.000000 
M120.870445,483.980164 
	C126.246590,484.264709 131.622742,484.549286 137.762527,485.229218 
	C144.174957,485.430786 150.587402,485.632355 157.882812,485.979950 
	C165.255310,486.264862 172.627823,486.549774 180.927383,486.979980 
	C188.285080,486.931274 195.642761,486.882538 203.923355,486.978607 
	C207.572464,486.985535 211.252396,487.301392 214.864822,486.940765 
	C225.197510,485.909271 230.933304,479.485260 230.808289,469.705048 
	C230.701279,461.333038 224.342834,453.765808 214.434586,453.994629 
	C210.624115,454.082672 206.812256,454.110596 202.073029,454.023071 
	C194.715469,454.070587 187.357910,454.118073 179.075272,454.023193 
	C171.716614,453.737427 164.357971,453.451660 156.073318,453.023407 
	C149.381958,452.737671 142.690582,452.451935 135.119278,452.023071 
	C129.745590,451.403992 124.371895,450.784882 118.167107,450.022217 
	C112.777107,448.736877 107.387108,447.451538 101.245117,446.011810 
	C94.511154,442.303223 87.777199,438.594666 80.777618,434.265076 
	C69.035210,421.925720 65.269608,406.362579 63.013287,390.204468 
	C62.304756,385.130493 61.738804,380.036591 61.010841,374.025024 
	C60.673275,354.443451 60.314308,334.862183 60.011566,315.280060 
	C59.924034,309.618256 60.095791,303.951874 59.976311,298.291260 
	C59.765583,288.307709 49.043690,280.703735 39.136570,283.996918 
	C31.257391,285.247467 26.986641,292.595764 27.053574,300.073181 
	C27.218191,318.463287 27.264917,336.869446 28.115812,355.234100 
	C28.897007,372.094513 29.910866,389.017273 32.297745,405.701477 
	C33.636295,415.057892 37.968357,423.986023 40.993351,433.857361 
	C44.577374,442.758179 50.122185,450.315155 57.065300,457.550720 
	C57.363110,457.740997 57.660923,457.931274 58.106571,458.611389 
	C58.392120,458.784698 58.677673,458.958008 59.231167,459.757721 
	C66.141212,464.211151 73.051262,468.664581 80.317245,473.773315 
	C81.693756,474.208282 83.062080,474.671539 84.448196,475.073364 
	C90.283020,476.764832 96.123169,478.437927 102.365677,480.801300 
	C108.243073,481.812286 114.120468,482.823273 120.870445,483.980164 
M423.269684,72.729927 
	C428.496643,77.188538 433.723633,81.647148 439.008881,86.826378 
	C442.007294,93.937988 445.836029,100.824966 447.833191,108.207443 
	C452.138550,124.122261 452.861694,140.570892 453.023621,157.893265 
	C453.349365,162.460114 453.916138,167.024841 453.955994,171.594193 
	C454.079010,185.702789 454.290009,199.821320 453.892822,213.919800 
	C453.654144,222.392349 459.881409,230.656937 470.799194,230.976562 
	C480.995026,230.290054 487.257416,221.980850 487.036591,213.128815 
	C486.585327,195.037506 486.048828,176.940613 486.084167,158.847092 
	C486.117340,141.858917 485.055023,124.990227 481.921326,108.316025 
	C479.866638,97.383339 477.348297,86.494850 471.004059,76.223534 
	C470.358063,74.949425 469.906738,73.519318 469.032471,72.428101 
	C465.125519,67.551811 461.097961,62.772163 457.022614,57.241394 
	C451.348511,52.883400 445.674377,48.525402 439.345306,43.852497 
	C433.910095,41.529469 428.474915,39.206444 422.653015,36.220303 
	C416.769043,34.869232 410.885101,33.518162 404.165039,32.020912 
	C397.110870,31.069456 390.056702,30.118000 382.102936,29.022968 
	C373.402069,28.737728 364.701202,28.452488 355.076477,28.023817 
	C346.384460,27.737972 337.692444,27.452127 328.072845,27.023026 
	C321.048981,27.070719 314.025085,27.118412 306.100372,27.023102 
	C304.108856,27.015484 302.094971,26.811323 300.129700,27.034557 
	C291.991791,27.958941 286.767700,30.472340 284.004150,38.584728 
	C281.825867,44.979019 284.135742,52.522728 289.505890,56.993511 
	C294.794189,61.396130 301.019775,59.815430 307.928406,59.977196 
	C314.952393,59.929359 321.976379,59.881527 329.926361,59.976757 
	C338.284515,60.262249 346.642639,60.547741 355.927277,60.976372 
	C364.952423,61.262074 373.977539,61.547771 383.825836,62.001492 
	C385.377014,62.334080 386.919586,62.715839 388.480957,62.990379 
	C393.984192,63.958008 399.493835,64.888863 405.777985,65.993744 
	C411.504578,68.034187 417.231201,70.074631 423.269684,72.729927 
M184.924286,411.978516 
	C191.616119,411.929840 198.307953,411.881195 205.794006,411.682587 
	C207.052765,411.455139 208.375229,411.402252 209.559296,410.970123 
	C214.742432,409.078461 219.885437,407.076874 225.531204,404.995026 
	C225.690643,404.943359 225.850067,404.891724 226.542664,404.902405 
	C226.737289,404.614227 226.931900,404.326080 227.736588,403.775391 
	C237.633652,395.424896 240.987122,384.345673 240.995850,371.890350 
	C241.009857,351.917084 241.130035,331.942627 240.952896,311.970947 
	C240.839218,299.153381 236.992889,287.867279 225.741928,279.325836 
	C219.160782,277.272888 212.579636,275.219940 205.071213,273.023956 
	C198.046692,273.071533 191.022186,273.119141 183.070404,273.023895 
	C175.712936,273.071411 168.355484,273.118927 160.070709,273.023254 
	C152.713287,273.070831 145.355881,273.118378 137.186676,273.043762 
	C131.457352,274.751038 125.728027,276.458313 119.318581,278.214508 
	C115.878540,281.478119 111.997978,284.394470 109.092751,288.079742 
	C103.526382,295.140564 102.348297,303.857147 102.105164,312.456329 
	C101.710007,326.432068 101.936844,340.427460 102.019409,354.413879 
	C102.080391,364.745148 103.095184,374.990906 107.075157,384.631226 
	C109.601250,390.749969 112.718399,396.629425 119.175423,400.687378 
	C125.429153,406.170441 132.753296,409.099487 141.748932,410.218140 
	C148.831406,410.756195 155.913864,411.294220 163.923996,411.978271 
	C170.614883,411.929810 177.305786,411.881348 184.924286,411.978516 
M326.074921,273.022949 
	C320.383026,273.070831 314.691101,273.118744 308.174774,273.024139 
	C302.450012,274.738708 296.725250,276.453247 290.316895,278.220917 
	C289.363007,278.827942 288.346436,279.355835 287.464874,280.054138 
	C277.191498,288.191833 273.083771,299.192871 273.025299,311.913849 
	C272.930542,332.536346 272.779022,353.162750 273.076630,373.781403 
	C273.278198,387.745117 278.228119,399.508942 291.680450,407.168365 
	C297.452972,408.723419 303.225494,410.278503 309.925995,411.977142 
	C317.283234,411.929077 324.640442,411.880981 332.925507,411.976318 
	C340.283936,411.928467 347.642395,411.880585 355.890594,411.975739 
	C362.606628,411.023071 369.322632,410.070374 376.844849,409.015869 
	C383.338135,407.957031 389.341766,405.837616 394.738800,400.773804 
	C396.499664,399.140442 398.387695,397.623047 400.000397,395.854584 
	C409.246368,385.715546 411.397369,372.876282 411.776550,360.097626 
	C412.320984,341.748627 411.913239,323.318848 410.794373,304.991791 
	C410.070496,293.134888 404.497314,283.290985 392.681335,277.233704 
	C386.120758,275.878296 379.560211,274.522888 372.072327,273.023376 
	C364.381775,273.070953 356.691193,273.118530 348.073059,273.022797 
	C341.049194,273.070557 334.025360,273.118286 326.074921,273.022949 
M328.927704,241.977081 
	C335.617920,241.927872 342.308136,241.878677 349.917572,241.973450 
	C357.611572,241.593231 365.305603,241.212997 373.863678,240.975449 
	C379.908966,239.595245 385.954285,238.215042 392.692902,236.774338 
	C396.809998,233.099915 401.342804,229.789536 404.950806,225.669312 
	C410.992126,218.770340 411.766113,209.822693 411.848083,201.272537 
	C412.019928,183.348206 411.622375,165.404251 410.912109,147.490036 
	C410.320953,132.580994 404.432007,120.063766 391.335938,110.839279 
	C385.176117,106.830292 378.517426,104.287888 370.641083,103.238480 
	C360.427917,102.881233 350.214783,102.523987 339.073639,102.023346 
	C330.049225,102.071404 321.024841,102.119461 311.168304,102.027046 
	C308.925507,102.352219 306.603882,102.413795 304.455841,103.055977 
	C299.577850,104.514343 294.785248,106.258247 289.325256,108.167557 
	C278.117981,115.325249 273.390106,126.218819 273.125214,138.847748 
	C272.671295,160.490814 272.641418,182.158569 273.140808,203.799637 
	C273.418152,215.818954 276.984680,226.889465 288.087555,234.510727 
	C288.383026,234.610229 288.678528,234.709717 289.458252,234.987350 
	C289.625000,235.029510 289.791748,235.071686 290.295349,235.747894 
	C296.196655,237.443192 302.097931,239.138489 308.922974,240.977036 
	C315.282104,241.262650 321.641235,241.548264 328.927704,241.977081 
M204.070511,27.023169 
	C196.712830,27.070637 189.355133,27.118103 181.078293,27.023054 
	C173.384995,27.404047 165.691696,27.785040 157.071457,28.023350 
	C148.380508,28.404490 139.689545,28.785631 130.145950,29.024477 
	C126.931648,29.350588 123.685547,29.493441 120.510239,30.044329 
	C115.315308,30.945608 110.166451,32.112434 104.192352,33.025681 
	C97.460289,35.073055 90.728226,37.120426 83.288208,39.237679 
	C76.509911,43.455750 69.731613,47.673820 62.323383,52.168457 
	C55.004810,57.583126 49.422230,64.465027 44.653782,72.914192 
	C31.761581,94.820221 29.996262,119.356529 28.052263,143.810486 
	C27.372482,152.361588 27.131828,160.961441 27.043800,169.542679 
	C26.886818,184.845856 26.569635,200.167709 27.136192,215.451477 
	C27.573801,227.256668 40.112576,233.768402 48.737381,229.979919 
	C55.722111,227.677643 59.849209,222.574738 59.986191,215.813370 
	C60.358356,197.443329 60.504673,179.067078 61.059765,160.702942 
	C61.397156,149.541046 62.102905,138.377563 63.072803,127.252243 
	C63.663284,120.479065 65.070976,113.777145 66.783501,106.665321 
	C67.054611,105.399849 67.267433,104.118553 67.605980,102.871384 
	C70.545303,92.043259 76.996872,83.499725 85.753624,75.769592 
	C92.168434,72.790787 98.583244,69.811981 105.770500,66.713737 
	C114.179848,65.086914 122.589188,63.460098 131.897476,61.980392 
	C140.597778,61.598331 149.298065,61.216270 158.872864,60.980270 
	C166.581451,60.598156 174.290024,60.216042 182.926041,59.979366 
	C190.283508,59.930737 197.640961,59.882107 205.918900,59.978260 
	C209.243546,59.985386 212.570251,60.070187 215.892410,59.982578 
	C221.808884,59.826550 228.455124,54.898277 229.984360,49.644859 
	C232.268631,41.797649 229.864624,34.897640 224.345993,30.601746 
	C218.340820,25.927116 211.653336,27.091713 204.070511,27.023169 
M422.211914,441.997986 
	C415.474701,444.387634 408.737488,446.777283 401.171539,449.024933 
	C396.693848,449.683380 392.218658,450.359253 387.737823,450.995483 
	C383.145844,451.647461 378.548340,452.260681 373.026031,452.984711 
	C363.350830,453.378632 353.675659,453.772522 343.072693,454.023315 
	C333.381775,454.071259 323.690826,454.119232 313.072845,454.024323 
	C308.591553,454.016205 304.110199,453.992920 299.628937,454.003326 
	C290.931000,454.023499 284.568939,459.317902 283.086304,468.168152 
	C282.108093,474.007233 285.358490,483.726501 294.398132,485.783020 
	C300.369446,487.141418 306.784241,486.550476 313.927948,486.976227 
	C323.326538,486.984192 332.725464,487.030548 342.123413,486.956970 
	C343.465454,486.946503 344.802948,486.355469 347.061646,486.004700 
	C352.868042,486.003235 358.677032,486.106018 364.479858,485.961487 
	C368.004181,485.873688 371.518982,485.403839 375.958374,485.013550 
	C384.652954,484.047333 393.347504,483.081116 402.893707,482.015320 
	C409.929260,480.287933 416.964783,478.560577 424.755890,476.962738 
	C430.503571,474.249725 436.251251,471.536713 442.682556,468.760315 
	C447.820557,464.522278 452.958557,460.284210 458.727661,455.778931 
	C462.762939,449.846710 466.798218,443.914490 471.164795,437.326599 
	C472.771729,434.205658 474.714447,431.209717 475.929993,427.943115 
	C482.756683,409.597504 484.417175,390.295471 485.938873,371.013702 
	C486.638702,362.145874 486.871368,353.227570 486.964447,344.328491 
	C487.122711,329.200500 487.288788,314.062012 486.888031,298.942871 
	C486.664215,290.498596 480.239746,283.190674 469.225281,283.022949 
	C461.461487,284.633820 455.362274,288.059692 454.022064,297.654602 
	C454.070526,306.103088 454.118988,314.551575 454.024475,323.743225 
	C454.072083,324.495361 454.119690,325.247467 454.022827,326.927094 
	C453.681671,338.327881 453.382874,349.730133 452.984039,361.128876 
	C452.730560,368.373657 452.431580,375.620148 451.947723,382.852142 
	C451.720276,386.252136 450.951019,389.612549 450.527588,393.003387 
	C449.132446,404.175873 445.720490,414.735474 440.319580,425.175446 
	C435.880676,432.149780 429.761322,437.378113 422.211914,441.997986 
M185.068497,102.024826 
	C177.378433,102.072151 169.688370,102.119469 161.093338,102.023582 
	C153.380066,102.978806 145.666809,103.934029 137.150269,104.986931 
	C130.269089,106.286278 123.977539,108.790833 118.313057,114.174889 
	C117.273964,114.930038 116.080521,115.540932 115.219322,116.462364 
	C105.112144,127.276329 102.566406,140.972748 102.197792,154.838867 
	C101.717575,172.903625 102.393700,191.016953 103.097443,209.088913 
	C103.539841,220.449326 109.199554,229.163208 119.293053,235.757217 
	C125.194534,237.449417 131.096008,239.141617 137.921341,240.979767 
	C145.280655,241.265625 152.639984,241.551498 160.919067,241.982941 
	C165.284470,241.935593 169.649857,241.888245 174.660324,241.979233 
	C175.095474,241.934830 175.530609,241.890442 176.718948,241.993469 
	C177.481812,241.946045 178.244675,241.898621 179.923187,241.989395 
	C188.948105,241.603745 197.973022,241.218094 207.782959,240.693726 
	C214.268417,239.604309 220.655075,238.240402 226.678940,233.828384 
	C227.974579,232.856415 229.482468,232.071655 230.531555,230.882233 
	C237.608780,222.858337 240.919647,213.338699 240.970245,202.740585 
	C241.070343,181.782303 241.227188,160.819778 240.910797,139.865799 
	C240.732315,128.045715 237.061935,117.446762 226.745819,109.329185 
	C220.496368,107.275513 214.246902,105.221848 207.146912,103.022362 
	C200.096451,102.737556 193.046005,102.452744 185.068497,102.024826 
z"/>
<path fill="#AE52FE" opacity="1.000000" stroke="none" 
	d="
M39.889961,283.953918 
	C49.043690,280.703735 59.765583,288.307709 59.976311,298.291260 
	C60.095791,303.951874 59.924034,309.618256 60.011566,315.280060 
	C60.314308,334.862183 60.673275,354.443451 60.812252,374.816650 
	C60.075848,381.025726 59.118652,386.439636 59.073444,391.861206 
	C58.886475,414.283325 58.975552,436.707733 58.963223,459.131317 
	C58.677673,458.958008 58.392120,458.784698 57.889381,458.152405 
	C57.408646,457.475494 57.145096,457.257629 56.881546,457.039734 
	C50.122185,450.315155 44.577374,442.758179 41.138710,433.091675 
	C41.522106,430.696259 41.966755,429.066650 41.968079,427.436676 
	C42.005238,381.737244 42.025867,336.037720 41.907833,290.338562 
	C41.902328,288.208618 40.592388,286.082062 39.889961,283.953918 
z"/>
<path fill="#B250FE" opacity="1.000000" stroke="none" 
	d="
M47.997875,229.833221 
	C40.112576,233.768402 27.573801,227.256668 27.136192,215.451477 
	C26.569635,200.167709 26.886818,184.845856 27.043800,169.542679 
	C27.131828,160.961441 27.372482,152.361588 28.052263,143.810486 
	C29.996262,119.356529 31.761581,94.820221 45.290871,72.940247 
	C46.618580,75.394180 47.906109,77.820656 47.911785,80.250137 
	C48.028252,130.110962 47.998524,179.972122 47.997875,229.833221 
z"/>
<path fill="#727AF6" opacity="1.000000" stroke="none" 
	d="
M205.998505,273.166992 
	C212.579636,275.219940 219.160782,277.272888 225.668945,279.979736 
	C225.397491,282.096924 225.026382,283.560150 225.025742,285.023468 
	C225.008408,325.054047 225.028854,365.084595 225.042999,405.115173 
	C219.885437,407.076874 214.742432,409.078461 209.559296,410.970123 
	C208.375229,411.402252 207.052765,411.455139 205.396942,411.299561 
	C204.999908,402.491150 205.073959,394.064636 204.950333,385.641052 
	C204.917572,383.407837 204.276855,381.183563 204.114914,378.621246 
	C205.542099,376.707642 207.719955,375.196381 207.839478,373.536896 
	C208.502579,364.329346 208.950943,355.085052 208.926865,345.854736 
	C208.897125,334.462677 208.463669,323.065186 207.869064,311.687531 
	C207.769653,309.785339 205.966492,307.972168 204.961853,305.641907 
	C204.982040,303.189667 204.938309,301.211487 205.009125,299.237396 
	C205.320877,290.546600 205.665665,281.857025 205.998505,273.166992 
z"/>
<path fill="#548EF2" opacity="1.000000" stroke="none" 
	d="
M307.999237,240.833771 
	C302.097931,239.138489 296.196655,237.443192 290.136353,234.955017 
	C289.970886,192.070114 289.964417,149.978104 289.957916,107.886086 
	C294.785248,106.258247 299.577850,104.514343 304.455841,103.055977 
	C306.603882,102.413795 308.925507,102.352219 311.593201,102.513351 
	C312.012360,113.610619 312.006622,124.221565 311.615692,134.911789 
	C307.308533,135.795074 305.866730,138.015335 305.909668,142.167755 
	C306.112213,161.751617 305.939972,181.339172 306.087402,200.924011 
	C306.103119,203.009399 307.331940,205.085648 307.998535,207.624390 
	C307.999176,218.999680 307.999207,229.916718 307.999237,240.833771 
z"/>
<path fill="#727AF6" opacity="1.000000" stroke="none" 
	d="
M207.997452,103.168182 
	C214.246902,105.221848 220.496368,107.275513 226.670532,109.981613 
	C226.396866,112.097321 226.025818,113.560532 226.025253,115.023895 
	C226.010040,154.722137 226.032700,194.420395 226.049011,234.118652 
	C220.655075,238.240402 214.268417,239.604309 207.390793,240.305115 
	C206.998886,237.923737 207.058182,235.928940 206.989227,233.938568 
	C206.679825,225.009018 206.333939,216.080734 206.354279,206.947723 
	C207.138016,204.695862 207.916183,202.652481 207.940964,200.600021 
	C208.067291,190.140091 208.133957,179.675568 207.961426,169.216949 
	C207.779358,158.179352 207.304077,147.146561 207.041611,135.694855 
	C207.415619,133.494476 207.937531,131.713226 207.954941,129.927032 
	C208.041870,121.008125 207.996368,112.087929 207.997452,103.168182 
z"/>
<path fill="#AC54FE" opacity="1.000000" stroke="none" 
	d="
M48.367630,229.906570 
	C47.998524,179.972122 48.028252,130.110962 47.911785,80.250137 
	C47.906109,77.820656 46.618580,75.394180 45.547134,72.717255 
	C49.422230,64.465027 55.004810,57.583126 62.834953,52.369583 
	C63.897400,54.924393 64.899353,57.273186 64.924965,59.632572 
	C65.075844,73.536903 64.957245,87.443985 65.048935,101.349350 
	C65.061462,103.249557 65.740921,105.145370 66.111588,107.043213 
	C65.070976,113.777145 63.663284,120.479065 63.072803,127.252243 
	C62.102905,138.377563 61.397156,149.541046 61.059765,160.702942 
	C60.504673,179.067078 60.358356,197.443329 59.986191,215.813370 
	C59.849209,222.574738 55.722111,227.677643 48.367630,229.906570 
z"/>
<path fill="#1AB5EA" opacity="1.000000" stroke="none" 
	d="
M470.000427,230.834137 
	C459.881409,230.656937 453.654144,222.392349 453.892822,213.919800 
	C454.290009,199.821320 454.079010,185.702789 453.955994,171.594193 
	C453.916138,167.024841 453.349365,162.460114 453.437164,157.273117 
	C454.233795,154.615799 454.945404,152.579453 454.950531,150.541336 
	C455.023285,121.681061 454.958160,92.820358 455.091095,63.960503 
	C455.100311,61.956478 456.409363,59.958443 457.113953,57.957626 
	C461.097961,62.772163 465.125519,67.551811 469.032471,72.428101 
	C469.906738,73.519318 470.358063,74.949425 470.801025,76.879105 
	C470.065369,80.432526 469.076172,83.329247 469.068909,86.228424 
	C468.967468,126.811417 468.949310,167.394867 469.045166,207.977890 
	C469.063171,215.597351 469.666962,223.215424 470.000427,230.834137 
z"/>
<path fill="#1AB5EA" opacity="1.000000" stroke="none" 
	d="
M454.167297,325.999603 
	C454.119690,325.247467 454.072083,324.495361 454.437775,323.197876 
	C454.988525,314.377228 455.138702,306.102051 455.216400,297.826172 
	C455.219513,297.498352 454.532440,297.164062 454.166931,296.832825 
	C455.362274,288.059692 461.461487,284.633820 469.612640,283.552643 
	C470.000000,333.108093 469.988861,382.133850 470.035339,431.159576 
	C470.037506,433.434021 470.555634,435.708038 470.833466,437.982239 
	C466.798218,443.914490 462.762939,449.846710 458.133789,455.638611 
	C457.026611,452.957153 456.072388,450.417145 456.066101,447.874756 
	C455.970917,409.318085 456.028259,370.761078 455.921844,332.204498 
	C455.916138,330.134583 454.778168,328.067810 454.167297,325.999603 
z"/>
<path fill="#14B9E9" opacity="1.000000" stroke="none" 
	d="
M470.399841,230.905350 
	C469.666962,223.215424 469.063171,215.597351 469.045166,207.977890 
	C468.949310,167.394867 468.967468,126.811417 469.068909,86.228424 
	C469.076172,83.329247 470.065369,80.432526 470.852875,77.243164 
	C477.348297,86.494850 479.866638,97.383339 481.921326,108.316025 
	C485.055023,124.990227 486.117340,141.858917 486.084167,158.847092 
	C486.048828,176.940613 486.585327,195.037506 487.036591,213.128815 
	C487.257416,221.980850 480.995026,230.290054 470.399841,230.905350 
z"/>
<path fill="#36A2EE" opacity="1.000000" stroke="none" 
	d="
M391.999573,236.834854 
	C385.954285,238.215042 379.908966,239.595245 373.431702,240.446136 
	C372.999542,229.333496 372.999359,218.750183 373.389343,208.087067 
	C378.751526,207.317169 378.990417,203.414658 378.944946,199.783493 
	C378.738190,183.279327 378.359772,166.777054 377.990417,150.275284 
	C377.833984,143.286057 375.288086,137.909317 368.122009,135.711334 
	C368.584503,127.698792 368.627899,120.009773 369.086670,112.345619 
	C369.255829,109.519562 370.404327,106.752136 371.106140,103.957962 
	C378.517426,104.287888 385.176117,106.830292 391.668091,111.446205 
	C392.000061,153.647034 391.999817,195.240952 391.999573,236.834854 
z"/>
<path fill="#9265FA" opacity="1.000000" stroke="none" 
	d="
M140.997528,409.833191 
	C132.753296,409.099487 125.429153,406.170441 119.284454,400.032227 
	C119.595650,397.246338 119.972145,395.115784 119.974098,392.984894 
	C120.009262,354.711792 119.999115,316.438690 119.998695,278.165558 
	C125.728027,276.458313 131.457352,274.751038 137.593048,273.562927 
	C138.331985,284.665985 138.664581,295.249908 138.648254,306.007080 
	C137.529541,307.252747 136.164627,308.283539 136.086334,309.404205 
	C135.569504,316.802216 135.027130,324.221283 135.069550,331.630188 
	C135.133987,342.889282 135.289200,354.177032 136.218262,365.385254 
	C136.517670,368.997345 139.377441,372.397186 141.024475,376.320618 
	C140.987854,387.775818 140.992691,398.804504 140.997528,409.833191 
z"/>
<path fill="#548EF2" opacity="1.000000" stroke="none" 
	d="
M291.000488,278.167816 
	C296.725250,276.453247 302.450012,274.738708 308.587280,273.553406 
	C309.017487,284.769348 309.035187,295.455994 308.866638,306.476929 
	C307.787506,308.358490 306.216553,309.862335 306.114197,311.460266 
	C305.545715,320.338409 305.041779,329.240387 305.072083,338.132294 
	C305.111969,349.846283 305.491699,361.568787 306.174988,373.261322 
	C306.288452,375.202850 308.693085,377.010498 310.029968,379.356110 
	C309.679993,390.499329 309.338989,401.166473 308.998016,411.833588 
	C303.225494,410.278503 297.452972,408.723419 291.341278,406.544525 
	C291.001587,363.336395 291.001038,320.752106 291.000488,278.167816 
z"/>
<path fill="#9265FA" opacity="1.000000" stroke="none" 
	d="
M136.997498,240.833801 
	C131.096008,239.141617 125.194534,237.449417 119.210098,235.019379 
	C119.417969,231.988281 119.958748,229.695435 119.962196,227.401749 
	C120.015785,191.836639 120.018883,156.271393 119.954994,120.706306 
	C119.950912,118.433167 119.303055,116.161194 118.954681,113.888680 
	C123.977539,108.790833 130.269089,106.286278 137.717529,105.329102 
	C138.522964,107.447815 138.951675,109.222664 138.967422,111.001175 
	C139.050385,120.371559 139.029144,129.742859 139.016891,139.492203 
	C137.659470,145.815903 135.430344,151.723755 135.180481,157.714157 
	C134.607254,171.457733 134.882095,185.243362 135.091888,199.007645 
	C135.137115,201.975220 136.360275,204.924835 137.031525,208.358643 
	C137.013977,219.500992 137.005737,230.167389 136.997498,240.833801 
z"/>
<path fill="#36A2EE" opacity="1.000000" stroke="none" 
	d="
M372.999634,273.167480 
	C379.560211,274.522888 386.120758,275.878296 392.852142,278.035034 
	C393.015320,317.661346 392.991913,356.486389 393.047333,395.311310 
	C393.050049,397.222870 393.740662,399.133453 394.110992,401.044495 
	C389.341766,405.837616 383.338135,407.957031 376.433136,408.590637 
	C376.014252,399.005829 376.068878,389.845398 375.949615,380.687225 
	C375.924713,378.773071 375.258087,376.867249 374.944458,374.577820 
	C376.334015,368.900879 378.633087,363.636627 378.815063,358.300201 
	C379.335938,343.023468 379.049988,327.717194 378.960510,312.423218 
	C378.938446,308.651367 377.468903,305.781342 372.999390,305.375000 
	C372.999573,294.333710 372.999603,283.750580 372.999634,273.167480 
z"/>
<path fill="#14B9E9" opacity="1.000000" stroke="none" 
	d="
M470.999115,437.654419 
	C470.555634,435.708038 470.037506,433.434021 470.035339,431.159576 
	C469.988861,382.133850 470.000000,333.108093 470.000214,283.624268 
	C480.239746,283.190674 486.664215,290.498596 486.888031,298.942871 
	C487.288788,314.062012 487.122711,329.200500 486.964447,344.328491 
	C486.871368,353.227570 486.638702,362.145874 485.938873,371.013702 
	C484.417175,390.295471 482.756683,409.597504 475.929993,427.943115 
	C474.714447,431.209717 472.771729,434.205658 470.999115,437.654419 
z"/>
<path fill="#30A6ED" opacity="1.000000" stroke="none" 
	d="
M392.346252,236.804596 
	C391.999817,195.240952 392.000061,153.647034 392.000610,111.592941 
	C404.432007,120.063766 410.320953,132.580994 410.912109,147.490036 
	C411.622375,165.404251 412.019928,183.348206 411.848083,201.272537 
	C411.766113,209.822693 410.992126,218.770340 404.950806,225.669312 
	C401.342804,229.789536 396.809998,233.099915 392.346252,236.804596 
z"/>
<path fill="#5A8AF3" opacity="1.000000" stroke="none" 
	d="
M290.658691,278.194366 
	C291.001038,320.752106 291.001587,363.336395 291.003082,406.378967 
	C278.228119,399.508942 273.278198,387.745117 273.076630,373.781403 
	C272.779022,353.162750 272.930542,332.536346 273.025299,311.913849 
	C273.083771,299.192871 277.191498,288.191833 287.464874,280.054138 
	C288.346436,279.355835 289.363007,278.827942 290.658691,278.194366 
z"/>
<path fill="#30A6ED" opacity="1.000000" stroke="none" 
	d="
M394.424896,400.909149 
	C393.740662,399.133453 393.050049,397.222870 393.047333,395.311310 
	C392.991913,356.486389 393.015320,317.661346 393.032471,278.360352 
	C404.497314,283.290985 410.070496,293.134888 410.794373,304.991791 
	C411.913239,323.318848 412.320984,341.748627 411.776550,360.097626 
	C411.397369,372.876282 409.246368,385.715546 400.000397,395.854584 
	C398.387695,397.623047 396.499664,399.140442 394.424896,400.909149 
z"/>
<path fill="#5A8AF3" opacity="1.000000" stroke="none" 
	d="
M289.641602,108.026825 
	C289.964417,149.978104 289.970886,192.070114 289.967957,234.638000 
	C289.791748,235.071686 289.625000,235.029510 289.058594,234.741241 
	C288.430725,234.301590 288.178314,234.147705 287.901703,234.033463 
	C276.984680,226.889465 273.418152,215.818954 273.140808,203.799637 
	C272.641418,182.158569 272.671295,160.490814 273.125214,138.847748 
	C273.390106,126.218819 278.117981,115.325249 289.641602,108.026825 
z"/>
<path fill="#B44FFF" opacity="1.000000" stroke="none" 
	d="
M39.513268,283.975403 
	C40.592388,286.082062 41.902328,288.208618 41.907833,290.338562 
	C42.025867,336.037720 42.005238,381.737244 41.968079,427.436676 
	C41.966755,429.066650 41.522106,430.696259 41.117874,432.716553 
	C37.968357,423.986023 33.636295,415.057892 32.297745,405.701477 
	C29.910866,389.017273 28.897007,372.094513 28.115812,355.234100 
	C27.264917,336.869446 27.218191,318.463287 27.053574,300.073181 
	C26.986641,292.595764 31.257391,285.247467 39.513268,283.975403 
z"/>
<path fill="#9861FB" opacity="1.000000" stroke="none" 
	d="
M119.658638,278.190033 
	C119.999115,316.438690 120.009262,354.711792 119.974098,392.984894 
	C119.972145,395.115784 119.595650,397.246338 119.143875,399.713928 
	C112.718399,396.629425 109.601250,390.749969 107.075157,384.631226 
	C103.095184,374.990906 102.080391,364.745148 102.019409,354.413879 
	C101.936844,340.427460 101.710007,326.432068 102.105164,312.456329 
	C102.348297,303.857147 103.526382,295.140564 109.092751,288.079742 
	C111.997978,284.394470 115.878540,281.478119 119.658638,278.190033 
z"/>
<path fill="#9861FB" opacity="1.000000" stroke="none" 
	d="
M118.633873,114.031784 
	C119.303055,116.161194 119.950912,118.433167 119.954994,120.706306 
	C120.018883,156.271393 120.015785,191.836639 119.962196,227.401749 
	C119.958748,229.695435 119.417969,231.988281 119.042206,234.698700 
	C109.199554,229.163208 103.539841,220.449326 103.097443,209.088913 
	C102.393700,191.016953 101.717575,172.903625 102.197792,154.838867 
	C102.566406,140.972748 105.112144,127.276329 115.219322,116.462364 
	C116.080521,115.540932 117.273964,114.930038 118.633873,114.031784 
z"/>
<path fill="#6C7EF5" opacity="1.000000" stroke="none" 
	d="
M225.287109,405.055115 
	C225.028854,365.084595 225.008408,325.054047 225.025742,285.023468 
	C225.026382,283.560150 225.397491,282.096924 225.843719,280.296661 
	C236.992889,287.867279 240.839218,299.153381 240.952896,311.970947 
	C241.130035,331.942627 241.009857,351.917084 240.995850,371.890350 
	C240.987122,384.345673 237.633652,395.424896 227.225281,404.010864 
	C226.447037,404.406128 226.212204,404.604034 226.009491,404.840057 
	C225.850067,404.891724 225.690643,404.943359 225.287109,405.055115 
z"/>
<path fill="#6C7EF5" opacity="1.000000" stroke="none" 
	d="
M226.363983,233.973511 
	C226.032700,194.420395 226.010040,154.722137 226.025253,115.023895 
	C226.025818,113.560532 226.396866,112.097321 226.842957,110.296982 
	C237.061935,117.446762 240.732315,128.045715 240.910797,139.865799 
	C241.227188,160.819778 241.070343,181.782303 240.970245,202.740585 
	C240.919647,213.338699 237.608780,222.858337 230.531555,230.882233 
	C229.482468,232.071655 227.974579,232.856415 226.363983,233.973511 
z"/>
<path fill="#A757FD" opacity="1.000000" stroke="none" 
	d="
M59.097195,459.444519 
	C58.975552,436.707733 58.886475,414.283325 59.073444,391.861206 
	C59.118652,386.439636 60.075848,381.025726 60.860626,375.280029 
	C61.738804,380.036591 62.304756,385.130493 63.013287,390.204468 
	C65.269608,406.362579 69.035210,421.925720 80.900688,435.051422 
	C81.015732,439.992920 81.113281,444.151550 80.977394,448.302521 
	C80.706520,456.576599 80.307434,464.846436 79.961304,473.118042 
	C73.051262,468.664581 66.141212,464.211151 59.097195,459.444519 
z"/>
<path fill="#1FB2EB" opacity="1.000000" stroke="none" 
	d="
M454.095093,326.463348 
	C454.778168,328.067810 455.916138,330.134583 455.921844,332.204498 
	C456.028259,370.761078 455.970917,409.318085 456.066101,447.874756 
	C456.072388,450.417145 457.026611,452.957153 457.818237,455.772217 
	C452.958557,460.284210 447.820557,464.522278 442.341064,468.334595 
	C441.999603,455.831573 442.052673,443.753876 441.952423,431.677399 
	C441.933655,429.412872 441.301941,427.153442 440.953094,424.891663 
	C445.720490,414.735474 449.132446,404.175873 450.527588,393.003387 
	C450.951019,389.612549 451.720276,386.252136 451.947723,382.852142 
	C452.431580,375.620148 452.730560,368.373657 452.984039,361.128876 
	C453.382874,349.730133 453.681671,338.327881 454.095093,326.463348 
z"/>
<path fill="#3E9DEF" opacity="1.000000" stroke="none" 
	d="
M344.000458,454.166412 
	C353.675659,453.772522 363.350830,453.378632 373.655457,453.328674 
	C374.523041,455.447052 374.950348,457.219666 374.967377,458.996185 
	C375.050934,467.698761 375.025177,476.402374 375.038055,485.105591 
	C371.518982,485.403839 368.004181,485.873688 364.479858,485.961487 
	C358.677032,486.106018 352.868042,486.003235 346.314545,485.752838 
	C345.045197,483.312103 344.120178,481.131958 344.072449,478.932770 
	C343.893280,470.680664 344.000519,462.422394 344.000458,454.166412 
z"/>
<path fill="#4A95F1" opacity="1.000000" stroke="none" 
	d="
M343.536560,454.094849 
	C344.000519,462.422394 343.893280,470.680664 344.072449,478.932770 
	C344.120178,481.131958 345.045197,483.312103 345.855011,485.767029 
	C344.802948,486.355469 343.465454,486.946503 342.123413,486.956970 
	C332.725464,487.030548 323.326538,486.984192 313.552429,486.506470 
	C313.450409,484.237793 313.943329,482.440918 313.960266,480.639587 
	C314.043030,471.816101 313.999084,462.991425 313.999908,454.167175 
	C323.690826,454.119232 333.381775,454.071259 343.536560,454.094849 
z"/>
<path fill="#1FB2EB" opacity="1.000000" stroke="none" 
	d="
M457.068268,57.599510 
	C456.409363,59.958443 455.100311,61.956478 455.091095,63.960503 
	C454.958160,92.820358 455.023285,121.681061 454.950531,150.541336 
	C454.945404,152.579453 454.233795,154.615799 453.508789,156.826599 
	C452.861694,140.570892 452.138550,124.122261 447.833191,108.207443 
	C445.836029,100.824966 442.007294,93.937988 439.146362,86.075714 
	C439.522583,83.203331 439.955292,81.082756 439.967712,78.959709 
	C440.035583,67.362610 440.000183,55.764904 440.000275,44.167404 
	C445.674377,48.525402 451.348511,52.883400 457.068268,57.599510 
z"/>
<path fill="#409BEF" opacity="1.000000" stroke="none" 
	d="
M370.873596,103.598221 
	C370.404327,106.752136 369.255829,109.519562 369.086670,112.345619 
	C368.627899,120.009773 368.584503,127.698792 367.688782,135.692154 
	C358.001190,135.615417 349.001221,135.224457 340.001160,134.375275 
	C340.001221,123.333618 340.001434,112.750175 340.001617,102.166733 
	C350.214783,102.523987 360.427917,102.881233 370.873596,103.598221 
z"/>
<path fill="#3B9FEF" opacity="1.000000" stroke="none" 
	d="
M356.000336,28.167248 
	C364.701202,28.452488 373.402069,28.737728 382.552307,29.552782 
	C383.002014,40.666222 383.002350,51.249847 383.002686,61.833473 
	C373.977539,61.547771 364.952423,61.262074 355.463806,60.446793 
	C355.000244,58.091499 354.944397,56.263798 355.009430,54.440403 
	C355.321838,45.682045 355.666870,36.924854 356.000336,28.167248 
z"/>
<path fill="#548EF2" opacity="1.000000" stroke="none" 
	d="
M313.536377,454.095764 
	C313.999084,462.991425 314.043030,471.816101 313.960266,480.639587 
	C313.943329,482.440918 313.450409,484.237793 313.088684,486.434540 
	C306.784241,486.550476 300.369446,487.141418 294.398132,485.783020 
	C285.358490,483.726501 282.108093,474.007233 283.086304,468.168152 
	C284.568939,459.317902 290.931000,454.023499 299.628937,454.003326 
	C304.110199,453.992920 308.591553,454.016205 313.536377,454.095764 
z"/>
<path fill="#34A4EE" opacity="1.000000" stroke="none" 
	d="
M375.498230,485.059570 
	C375.025177,476.402374 375.050934,467.698761 374.967377,458.996185 
	C374.950348,457.219666 374.523041,455.447052 374.119080,453.281738 
	C378.548340,452.260681 383.145844,451.647461 387.737823,450.995483 
	C392.218658,450.359253 396.693848,449.683380 401.585754,449.553925 
	C402.014038,460.760254 402.028076,471.437561 402.042084,482.114929 
	C393.347504,483.081116 384.652954,484.047333 375.498230,485.059570 
z"/>
<path fill="#4A95F1" opacity="1.000000" stroke="none" 
	d="
M339.537628,102.095047 
	C340.001434,112.750175 340.001221,123.333618 339.537140,134.446884 
	C330.049133,134.928650 321.024994,134.880585 312.000885,134.832520 
	C312.006622,124.221565 312.012360,113.610619 312.009277,102.583588 
	C321.024841,102.119461 330.049225,102.071404 339.537628,102.095047 
z"/>
<path fill="#8B69F9" opacity="1.000000" stroke="none" 
	d="
M157.998367,60.834213 
	C149.298065,61.216270 140.597778,61.598331 131.448380,61.448795 
	C130.999054,50.333721 130.998825,39.750248 130.998596,29.166771 
	C139.689545,28.785631 148.380508,28.404490 157.535355,28.552771 
	C157.998962,39.666199 157.998657,50.250206 157.998367,60.834213 
z"/>
<path fill="#9662FB" opacity="1.000000" stroke="none" 
	d="
M130.572266,29.095623 
	C130.998825,39.750248 130.999054,50.333721 130.998901,61.375237 
	C122.589188,63.460098 114.179848,65.086914 105.384705,66.315414 
	C104.998665,55.000484 104.998413,44.083866 104.998154,33.167252 
	C110.166451,32.112434 115.315308,30.945608 120.510239,30.044329 
	C123.685547,29.493441 126.931648,29.350588 130.572266,29.095623 
z"/>
<path fill="#4598F0" opacity="1.000000" stroke="none" 
	d="
M355.538391,28.095531 
	C355.666870,36.924854 355.321838,45.682045 355.009430,54.440403 
	C354.944397,56.263798 355.000244,58.091499 355.000549,60.375229 
	C346.642639,60.547741 338.284515,60.262249 329.463196,59.447186 
	C329.000183,48.333836 329.000305,37.750061 329.000427,27.166283 
	C337.692444,27.452127 346.384460,27.737972 355.538391,28.095531 
z"/>
<path fill="#A757FD" opacity="1.000000" stroke="none" 
	d="
M66.447540,106.854263 
	C65.740921,105.145370 65.061462,103.249557 65.048935,101.349350 
	C64.957245,87.443985 65.075844,73.536903 64.924965,59.632572 
	C64.899353,57.273186 63.897400,54.924393 63.149918,52.231300 
	C69.731613,47.673820 76.509911,43.455750 83.634048,39.618835 
	C83.661858,50.030926 83.223442,60.060719 83.128632,70.093758 
	C83.109947,72.070854 84.415970,74.060463 85.111061,76.044304 
	C76.996872,83.499725 70.545303,92.043259 67.605980,102.871384 
	C67.267433,104.118553 67.054611,105.399849 66.447540,106.854263 
z"/>
<path fill="#826FF8" opacity="1.000000" stroke="none" 
	d="
M179.007538,241.851181 
	C178.244675,241.898621 177.481812,241.946045 176.170441,241.774811 
	C175.086380,241.651077 174.550827,241.745972 174.015259,241.840881 
	C169.649857,241.888245 165.284470,241.935593 160.427979,241.500397 
	C159.957565,230.066132 159.978241,219.114395 160.458832,208.089874 
	C165.284256,208.064423 169.649734,208.111771 174.190186,208.302719 
	C174.902481,208.348831 175.439819,208.251328 176.350525,208.080170 
	C177.480255,208.053909 178.236588,208.101288 179.292511,208.343994 
	C183.037338,209.161392 184.039017,211.469406 184.009079,214.667206 
	C183.947037,221.292374 183.869827,227.921875 184.044296,234.543121 
	C184.145111,238.369583 182.944580,240.968277 179.007538,241.851181 
z"/>
<path fill="#3E9DEF" opacity="1.000000" stroke="none" 
	d="
M372.535980,273.095428 
	C372.999603,283.750580 372.999573,294.333710 372.535706,305.446960 
	C364.047150,305.927856 356.022400,305.878632 347.998169,305.371460 
	C348.332672,294.331024 348.666656,283.748535 349.000641,273.166077 
	C356.691193,273.118530 364.381775,273.070953 372.535980,273.095428 
z"/>
<path fill="#727AF6" opacity="1.000000" stroke="none" 
	d="
M203.001038,454.165894 
	C206.812256,454.110596 210.624115,454.082672 214.434586,453.994629 
	C224.342834,453.765808 230.701279,461.333038 230.808289,469.705048 
	C230.933304,479.485260 225.197510,485.909271 214.864822,486.940765 
	C211.252396,487.301392 207.572464,486.985535 203.461929,486.448181 
	C203.000687,475.333771 203.000870,464.749847 203.001038,454.165894 
z"/>
<path fill="#826FF8" opacity="1.000000" stroke="none" 
	d="
M161.998306,102.166794 
	C169.688370,102.119469 177.378433,102.072151 185.532837,102.554329 
	C185.996994,113.666412 185.996811,124.248993 185.533112,134.903229 
	C177.378906,134.927612 169.688202,134.880356 161.997925,134.374893 
	C161.998352,123.333389 161.998322,112.750092 161.998306,102.166794 
z"/>
<path fill="#4598F0" opacity="1.000000" stroke="none" 
	d="
M355.000824,411.832703 
	C347.642395,411.880585 340.283936,411.928467 332.373718,411.506775 
	C331.548523,409.238220 331.055664,407.441315 331.038757,405.639923 
	C330.955811,396.816315 330.999603,387.991486 331.462555,379.095428 
	C339.617737,379.071686 347.308960,379.119598 355.000061,379.625671 
	C355.000275,390.666779 355.000549,401.249756 355.000824,411.832703 
z"/>
<path fill="#826FF8" opacity="1.000000" stroke="none" 
	d="
M158.435608,60.907242 
	C157.998657,50.250206 157.998962,39.666199 157.998825,28.624111 
	C165.691696,27.785040 173.384995,27.404047 181.538528,27.552414 
	C181.998718,38.665825 181.998657,49.249874 181.998611,59.833923 
	C174.290024,60.216042 166.581451,60.598156 158.435608,60.907242 
z"/>
<path fill="#7A75F7" opacity="1.000000" stroke="none" 
	d="
M179.465363,241.920288 
	C182.944580,240.968277 184.145111,238.369583 184.044296,234.543121 
	C183.869827,227.921875 183.947037,221.292374 184.009079,214.667206 
	C184.039017,211.469406 183.037338,209.161392 179.757431,208.274872 
	C182.736237,208.009079 185.553070,208.095490 188.362503,207.988174 
	C194.244141,207.763504 200.121887,207.436798 206.001221,207.151993 
	C206.333939,216.080734 206.679825,225.009018 206.989227,233.938568 
	C207.058182,235.928940 206.998886,237.923737 206.998291,240.374481 
	C197.973022,241.218094 188.948105,241.603745 179.465363,241.920288 
z"/>
<path fill="#9F5CFC" opacity="1.000000" stroke="none" 
	d="
M85.432343,75.906952 
	C84.415970,74.060463 83.109947,72.070854 83.128632,70.093758 
	C83.223442,60.060719 83.661858,50.030926 83.988029,39.583893 
	C90.728226,37.120426 97.460289,35.073055 104.595253,33.096466 
	C104.998413,44.083866 104.998665,55.000484 104.998489,66.375137 
	C98.583244,69.811981 92.168434,72.790787 85.432343,75.906952 
z"/>
<path fill="#3E9DEF" opacity="1.000000" stroke="none" 
	d="
M372.999146,208.166870 
	C372.999359,218.750183 372.999542,229.333496 372.999695,240.374786 
	C365.305603,241.212997 357.611572,241.593231 349.546753,241.503906 
	C349.450317,239.068954 349.942963,237.105621 349.961609,235.137772 
	C350.046753,226.147385 349.998901,217.155746 350.462830,208.093170 
	C358.284271,208.070145 365.641693,208.118515 372.999146,208.166870 
z"/>
<path fill="#8A6BF9" opacity="1.000000" stroke="none" 
	d="
M161.545822,102.095184 
	C161.998322,112.750092 161.998352,123.333389 161.549316,134.446457 
	C153.483917,134.946640 146.055664,135.919739 139.044067,139.113846 
	C139.029144,129.742859 139.050385,120.371559 138.967422,111.001175 
	C138.951675,109.222664 138.522964,107.447815 138.119171,105.280258 
	C145.666809,103.934029 153.380066,102.978806 161.545822,102.095184 
z"/>
<path fill="#9F5CFC" opacity="1.000000" stroke="none" 
	d="
M80.139267,473.445679 
	C80.307434,464.846436 80.706520,456.576599 80.977394,448.302521 
	C81.113281,444.151550 81.015732,439.992920 81.033493,435.361938 
	C87.777199,438.594666 94.511154,442.303223 101.621796,446.547089 
	C101.986107,458.094177 101.973740,469.105957 101.961365,480.117767 
	C96.123169,478.437927 90.283020,476.764832 84.448196,475.073364 
	C83.062080,474.671539 81.693756,474.208282 80.139267,473.445679 
z"/>
<path fill="#8A6BF9" opacity="1.000000" stroke="none" 
	d="
M141.373230,410.025665 
	C140.992691,398.804504 140.987854,387.775818 141.374603,376.492798 
	C148.843033,377.214691 155.919876,378.190918 162.997192,379.625305 
	C162.997223,390.666412 162.996780,401.249359 162.996338,411.832275 
	C155.913864,411.294220 148.831406,410.756195 141.373230,410.025665 
z"/>
<path fill="#826FF8" opacity="1.000000" stroke="none" 
	d="
M156.999313,453.165894 
	C164.357971,453.451660 171.716614,453.737427 179.537903,454.552490 
	C180.000473,465.666077 180.000397,476.250397 180.000320,486.834686 
	C172.627823,486.549774 165.255310,486.264862 157.441498,485.448853 
	C156.999893,474.333832 156.999603,463.749847 156.999313,453.165894 
z"/>
<path fill="#2BAAEC" opacity="1.000000" stroke="none" 
	d="
M402.467896,482.065125 
	C402.028076,471.437561 402.014038,460.760254 402.000122,449.624939 
	C408.737488,446.777283 415.474701,444.387634 422.748230,442.335175 
	C423.522797,444.460815 423.954254,446.247864 423.967041,448.037933 
	C424.035675,457.635925 423.999969,467.234680 424.000305,476.833191 
	C416.964783,478.560577 409.929260,480.287933 402.467896,482.065125 
z"/>
<path fill="#7A75F7" opacity="1.000000" stroke="none" 
	d="
M180.463852,486.907349 
	C180.000397,476.250397 180.000473,465.666077 180.000443,454.623657 
	C187.357910,454.118073 194.715469,454.070587 202.537033,454.094482 
	C203.000870,464.749847 203.000687,475.333771 203.000488,486.375763 
	C195.642761,486.882538 188.285080,486.931274 180.463852,486.907349 
z"/>
<path fill="#7A75F7" opacity="1.000000" stroke="none" 
	d="
M182.462326,59.906647 
	C181.998657,49.249874 181.998718,38.665825 181.998108,27.623672 
	C189.355133,27.118103 196.712830,27.070637 204.534683,27.552771 
	C204.998718,38.666073 204.998581,49.249775 204.998428,59.833477 
	C197.640961,59.882107 190.283508,59.930737 182.462326,59.906647 
z"/>
<path fill="#8A6BF9" opacity="1.000000" stroke="none" 
	d="
M138.997177,305.833801 
	C138.664581,295.249908 138.331985,284.665985 137.998932,273.624023 
	C145.355881,273.118378 152.713287,273.070831 160.534805,273.552917 
	C160.999268,275.908600 160.944336,277.736603 161.009415,279.560333 
	C161.322006,288.320251 161.667023,297.079071 161.536499,305.909180 
	C153.714035,305.931335 146.355606,305.882568 138.997177,305.833801 
z"/>
<path fill="#4697F0" opacity="1.000000" stroke="none" 
	d="
M349.998840,208.164551 
	C349.998901,217.155746 350.046753,226.147385 349.961609,235.137772 
	C349.942963,237.105621 349.450317,239.068954 349.087158,241.431915 
	C342.308136,241.878677 335.617920,241.927872 328.463867,241.447433 
	C328.000000,230.000549 327.999969,219.083328 328.463684,208.094513 
	C335.951263,208.070129 342.975037,208.117340 349.998840,208.164551 
z"/>
<path fill="#727AF6" opacity="1.000000" stroke="none" 
	d="
M205.458664,59.905869 
	C204.998581,49.249775 204.998718,38.666073 204.998322,27.624317 
	C211.653336,27.091713 218.340820,25.927116 224.345993,30.601746 
	C229.864624,34.897640 232.268631,41.797649 229.984360,49.644859 
	C228.455124,54.898277 221.808884,59.826550 215.892410,59.982578 
	C212.570251,60.070187 209.243546,59.985386 205.458664,59.905869 
z"/>
<path fill="#8B69F9" opacity="1.000000" stroke="none" 
	d="
M159.998917,208.162659 
	C159.978241,219.114395 159.957565,230.066132 159.968109,241.427612 
	C152.639984,241.551498 145.280655,241.265625 137.459412,240.906784 
	C137.005737,230.167389 137.013977,219.500992 137.495178,208.408768 
	C145.311737,208.042862 152.655319,208.102753 159.998917,208.162659 
z"/>
<path fill="#30A6ED" opacity="1.000000" stroke="none" 
	d="
M383.414246,61.917480 
	C383.002350,51.249847 383.002014,40.666222 383.002075,29.624571 
	C390.056702,30.118000 397.110870,31.069456 404.582947,32.551994 
	C405.000916,43.999939 405.000977,54.916801 405.001068,65.833664 
	C399.493835,64.888863 393.984192,63.958008 388.480957,62.990379 
	C386.919586,62.715839 385.377014,62.334080 383.414246,61.917480 
z"/>
<path fill="#7A75F7" opacity="1.000000" stroke="none" 
	d="
M205.534851,273.095459 
	C205.665665,281.857025 205.320877,290.546600 205.009125,299.237396 
	C204.938309,301.211487 204.982040,303.189667 204.499268,305.590363 
	C195.681305,305.960266 187.337158,305.905792 179.304703,305.652222 
	C182.476089,304.915436 182.999329,303.022888 183.053543,300.378815 
	C183.239624,291.305481 183.664078,282.237061 183.997650,273.166748 
	C191.022186,273.119141 198.046692,273.071533 205.534851,273.095459 
z"/>
<path fill="#4E93F1" opacity="1.000000" stroke="none" 
	d="
M328.536621,27.094654 
	C329.000305,37.750061 329.000183,48.333836 329.000214,59.375656 
	C321.976379,59.881527 314.952393,59.929359 307.464569,59.447372 
	C307.000916,48.333733 307.001068,37.749920 307.001221,27.166107 
	C314.025085,27.118412 321.048981,27.070719 328.536621,27.094654 
z"/>
<path fill="#7A75F7" opacity="1.000000" stroke="none" 
	d="
M185.996628,134.831573 
	C185.996811,124.248993 185.996994,113.666412 185.996368,102.625885 
	C193.046005,102.452744 200.096451,102.737556 207.572174,103.095276 
	C207.996368,112.087929 208.041870,121.008125 207.954941,129.927032 
	C207.937531,131.713226 207.415619,133.494476 206.616318,135.644073 
	C199.403076,135.617279 192.699860,135.224426 185.996628,134.831573 
z"/>
<path fill="#24AEEC" opacity="1.000000" stroke="none" 
	d="
M424.378113,476.897949 
	C423.999969,467.234680 424.035675,457.635925 423.967041,448.037933 
	C423.954254,446.247864 423.522797,444.460815 423.118744,442.281494 
	C429.761322,437.378113 435.880676,432.149780 440.636353,425.033569 
	C441.301941,427.153442 441.933655,429.412872 441.952423,431.677399 
	C442.052673,443.753876 441.999603,455.831573 441.999268,468.366272 
	C436.251251,471.536713 430.503571,474.249725 424.378113,476.897949 
z"/>
<path fill="#826FF8" opacity="1.000000" stroke="none" 
	d="
M183.534027,273.095337 
	C183.664078,282.237061 183.239624,291.305481 183.053543,300.378815 
	C182.999329,303.022888 182.476089,304.915436 178.931488,305.723694 
	C177.491196,305.945068 176.735809,305.895905 175.806473,305.701538 
	C175.093002,305.651337 174.553497,305.746338 173.557220,305.913422 
	C169.400497,305.936432 165.700500,305.887329 162.000519,305.838257 
	C161.667023,297.079071 161.322006,288.320251 161.009415,279.560333 
	C160.944336,277.736603 160.999268,275.908600 160.998459,273.624512 
	C168.355484,273.118927 175.712936,273.071411 183.534027,273.095337 
z"/>
<path fill="#3B9FEF" opacity="1.000000" stroke="none" 
	d="
M355.445709,411.904236 
	C355.000549,401.249756 355.000275,390.666779 355.433807,379.554138 
	C362.207489,377.668823 368.547302,376.313202 374.887146,374.957581 
	C375.258087,376.867249 375.924713,378.773071 375.949615,380.687225 
	C376.068878,389.845398 376.014252,399.005829 376.030029,408.641571 
	C369.322632,410.070374 362.606628,411.023071 355.445709,411.904236 
z"/>
<path fill="#4E93F1" opacity="1.000000" stroke="none" 
	d="
M330.998566,379.167114 
	C330.999603,387.991486 330.955811,396.816315 331.038757,405.639923 
	C331.055664,407.441315 331.548523,409.238220 331.909821,411.435059 
	C324.640442,411.880981 317.283234,411.929077 309.462006,411.905365 
	C309.338989,401.166473 309.679993,390.499329 310.493561,379.407776 
	C317.643616,379.044617 324.321106,379.105865 330.998566,379.167114 
z"/>
<path fill="#4697F0" opacity="1.000000" stroke="none" 
	d="
M348.536865,273.094421 
	C348.666656,283.748535 348.332672,294.331024 347.534790,305.443604 
	C340.380981,305.927155 333.691071,305.880554 327.000916,305.375732 
	C327.000946,294.333649 327.001221,283.749847 327.001495,273.166016 
	C334.025360,273.118286 341.049194,273.070557 348.536865,273.094421 
z"/>
<path fill="#826FF8" opacity="1.000000" stroke="none" 
	d="
M163.460175,411.905273 
	C162.996780,401.249359 162.997223,390.666412 163.461044,379.552368 
	C170.615570,379.069702 177.306702,379.118103 183.998230,379.624725 
	C183.997971,390.666260 183.997314,401.249573 183.996674,411.832886 
	C177.305786,411.881348 170.614883,411.929810 163.460175,411.905273 
z"/>
<path fill="#7A75F7" opacity="1.000000" stroke="none" 
	d="
M184.460480,411.905701 
	C183.997314,401.249573 183.997971,390.666260 184.461807,379.551941 
	C191.255081,378.999023 197.585190,378.977112 203.915283,378.955170 
	C204.276855,381.183563 204.917572,383.407837 204.950333,385.641052 
	C205.073959,394.064636 204.999908,402.491150 204.999817,411.374542 
	C198.307953,411.881195 191.616119,411.929840 184.460480,411.905701 
z"/>
<path fill="#548EF2" opacity="1.000000" stroke="none" 
	d="
M306.550781,27.094604 
	C307.001068,37.749920 307.000916,48.333733 307.000946,59.375580 
	C301.019775,59.815430 294.794189,61.396130 289.505890,56.993511 
	C284.135742,52.522728 281.825867,44.979019 284.004150,38.584728 
	C286.767700,30.472340 291.991791,27.958941 300.129700,27.034557 
	C302.094971,26.811323 304.108856,27.015484 306.550781,27.094604 
z"/>
<path fill="#4E93F1" opacity="1.000000" stroke="none" 
	d="
M327.999939,208.166077 
	C327.999969,219.083328 328.000000,230.000549 328.000183,241.375839 
	C321.641235,241.548264 315.282104,241.262650 308.461121,240.905396 
	C307.999207,229.916718 307.999176,218.999680 308.410187,207.713135 
	C315.214142,207.617798 321.607056,207.891937 327.999939,208.166077 
z"/>
<path fill="#24AEEC" opacity="1.000000" stroke="none" 
	d="
M439.672791,44.009949 
	C440.000183,55.764904 440.035583,67.362610 439.967712,78.959709 
	C439.955292,81.082756 439.522583,83.203331 439.117249,85.715408 
	C433.723633,81.647148 428.496643,77.188538 423.123260,71.946564 
	C422.997772,59.736599 423.018738,48.310001 423.039703,36.883415 
	C428.474915,39.206444 433.910095,41.529469 439.672791,44.009949 
z"/>
<path fill="#8B69F9" opacity="1.000000" stroke="none" 
	d="
M156.536316,453.094666 
	C156.999603,463.749847 156.999893,474.333832 157.000000,485.375854 
	C150.587402,485.632355 144.174957,485.430786 137.380951,484.573425 
	C136.999573,482.091858 137.055573,480.264069 136.990509,478.440582 
	C136.678009,469.681793 136.332825,460.924225 135.999222,452.166199 
	C142.690582,452.451935 149.381958,452.737671 156.536316,453.094666 
z"/>
<path fill="#2BAAEC" opacity="1.000000" stroke="none" 
	d="
M422.846375,36.551857 
	C423.018738,48.310001 422.997772,59.736599 422.967316,71.639130 
	C417.231201,70.074631 411.504578,68.034187 405.389526,65.913704 
	C405.000977,54.916801 405.000916,43.999939 405.000977,32.625084 
	C410.885101,33.518162 416.769043,34.869232 422.846375,36.551857 
z"/>
<path fill="#9861FB" opacity="1.000000" stroke="none" 
	d="
M102.163521,480.459534 
	C101.973740,469.105957 101.986107,458.094177 101.997795,446.624268 
	C107.387108,447.451538 112.777107,448.736877 118.614555,450.503540 
	C119.373955,461.934662 119.685905,472.884460 119.997856,483.834290 
	C114.120468,482.823273 108.243073,481.812286 102.163521,480.459534 
z"/>
<path fill="#4E93F1" opacity="1.000000" stroke="none" 
	d="
M326.538208,273.094482 
	C327.001221,283.749847 327.000946,294.333649 326.537659,305.447266 
	C320.400726,306.032257 314.726807,306.087463 309.052887,306.142639 
	C309.035187,295.455994 309.017487,284.769348 308.999481,273.624695 
	C314.691101,273.118744 320.383026,273.070831 326.538208,273.094482 
z"/>
<path fill="#9265FA" opacity="1.000000" stroke="none" 
	d="
M120.434151,483.907227 
	C119.685905,472.884460 119.373955,461.934662 119.030106,450.575317 
	C124.371895,450.784882 129.745590,451.403992 135.559250,452.094635 
	C136.332825,460.924225 136.678009,469.681793 136.990509,478.440582 
	C137.055573,480.264069 136.999573,482.091858 136.999115,484.375732 
	C131.622742,484.549286 126.246590,484.264709 120.434151,483.907227 
z"/>
<path fill="#1FB2EB" opacity="1.000000" stroke="none" 
	d="
M454.094482,297.243713 
	C454.532440,297.164062 455.219513,297.498352 455.216400,297.826172 
	C455.138702,306.102051 454.988525,314.377228 454.509277,322.826294 
	C454.118988,314.551575 454.070526,306.103088 454.094482,297.243713 
z"/>
<path fill="#8B69F9" opacity="1.000000" stroke="none" 
	d="
M174.337799,241.910049 
	C174.550827,241.745972 175.086380,241.651077 175.793854,241.701111 
	C175.530609,241.890442 175.095474,241.934830 174.337799,241.910049 
z"/>
<path fill="#727AF6" opacity="1.000000" stroke="none" 
	d="
M226.276077,404.871216 
	C226.212204,404.604034 226.447037,404.406128 226.920242,404.142120 
	C226.931900,404.326080 226.737289,404.614227 226.276077,404.871216 
z"/>
<path fill="#548EF2" opacity="1.000000" stroke="none" 
	d="
M287.994629,234.272095 
	C288.178314,234.147705 288.430725,234.301590 288.816467,234.652161 
	C288.678528,234.709717 288.383026,234.610229 287.994629,234.272095 
z"/>
<path fill="#A757FD" opacity="1.000000" stroke="none" 
	d="
M56.973423,457.295227 
	C57.145096,457.257629 57.408646,457.475494 57.815464,457.907471 
	C57.660923,457.931274 57.363110,457.740997 56.973423,457.295227 
z"/>
<path fill="#000000" opacity="1.000000" stroke="none" 
	d="
M204.114914,378.621246 
	C197.585190,378.977112 191.255081,378.999023 184.461426,379.093750 
	C177.306702,379.118103 170.615570,379.069702 163.460571,379.094208 
	C155.919876,378.190918 148.843033,377.214691 141.416046,376.066284 
	C139.377441,372.397186 136.517670,368.997345 136.218262,365.385254 
	C135.289200,354.177032 135.133987,342.889282 135.069550,331.630188 
	C135.027130,324.221283 135.569504,316.802216 136.086334,309.404205 
	C136.164627,308.283539 137.529541,307.252747 138.648254,306.007080 
	C146.355606,305.882568 153.714035,305.931335 161.536499,305.909180 
	C165.700500,305.887329 169.400497,305.936432 173.882416,305.982758 
	C175.103058,305.935577 175.541733,305.891144 175.980423,305.846741 
	C176.735809,305.895905 177.491196,305.945068 178.619781,305.922791 
	C187.337158,305.905792 195.681305,305.960266 204.488037,306.066284 
	C205.966492,307.972168 207.769653,309.785339 207.869064,311.687531 
	C208.463669,323.065186 208.897125,334.462677 208.926865,345.854736 
	C208.950943,355.085052 208.502579,364.329346 207.839478,373.536896 
	C207.719955,375.196381 205.542099,376.707642 204.114914,378.621246 
z"/>
<path fill="#000000" opacity="1.000000" stroke="none" 
	d="
M328.463684,208.094498 
	C321.607056,207.891937 315.214142,207.617798 308.409607,207.254898 
	C307.331940,205.085648 306.103119,203.009399 306.087402,200.924011 
	C305.939972,181.339172 306.112213,161.751617 305.909668,142.167755 
	C305.866730,138.015335 307.308533,135.795074 311.615692,134.911804 
	C321.024994,134.880585 330.049133,134.928650 339.537231,134.905106 
	C349.001221,135.224457 358.001190,135.615417 367.434387,136.025543 
	C375.288086,137.909317 377.833984,143.286057 377.990417,150.275284 
	C378.359772,166.777054 378.738190,183.279327 378.944946,199.783493 
	C378.990417,203.414658 378.751526,207.317169 373.389343,208.087067 
	C365.641693,208.118515 358.284271,208.070145 350.462830,208.093170 
	C342.975037,208.117340 335.951263,208.070129 328.463684,208.094498 
z"/>
<path fill="#000000" opacity="1.000000" stroke="none" 
	d="
M185.533112,134.903229 
	C192.699860,135.224426 199.403076,135.617279 206.531601,136.060913 
	C207.304077,147.146561 207.779358,158.179352 207.961426,169.216949 
	C208.133957,179.675568 208.067291,190.140091 207.940964,200.600021 
	C207.916183,202.652481 207.138016,204.695862 206.354279,206.947723 
	C200.121887,207.436798 194.244141,207.763504 188.362503,207.988174 
	C185.553070,208.095490 182.736237,208.009079 179.457825,208.079559 
	C178.236588,208.101288 177.480255,208.053909 176.025757,208.013306 
	C174.890137,208.066422 174.452682,208.112762 174.015228,208.159119 
	C169.649734,208.111771 165.284256,208.064423 160.458832,208.089859 
	C152.655319,208.102753 145.311737,208.042862 137.504486,207.932831 
	C136.360275,204.924835 135.137115,201.975220 135.091888,199.007645 
	C134.882095,185.243362 134.607254,171.457733 135.180481,157.714157 
	C135.430344,151.723755 137.659470,145.815903 139.016891,139.492203 
	C146.055664,135.919739 153.483917,134.946640 161.548889,134.904663 
	C169.688202,134.880356 177.378906,134.927612 185.533112,134.903229 
z"/>
<path fill="#000000" opacity="1.000000" stroke="none" 
	d="
M308.866638,306.476929 
	C314.726807,306.087463 320.400726,306.032257 326.537903,305.905518 
	C333.691071,305.880554 340.380981,305.927155 347.534302,305.901550 
	C356.022400,305.878632 364.047150,305.927856 372.535583,305.905151 
	C377.468903,305.781342 378.938446,308.651367 378.960510,312.423218 
	C379.049988,327.717194 379.335938,343.023468 378.815063,358.300201 
	C378.633087,363.636627 376.334015,368.900879 374.944458,374.577820 
	C368.547302,376.313202 362.207489,377.668823 355.433899,379.095978 
	C347.308960,379.119598 339.617737,379.071686 331.462555,379.095428 
	C324.321106,379.105865 317.643616,379.044617 310.502563,378.931702 
	C308.693085,377.010498 306.288452,375.202850 306.174988,373.261322 
	C305.491699,361.568787 305.111969,349.846283 305.072083,338.132294 
	C305.041779,329.240387 305.545715,320.338409 306.114197,311.460266 
	C306.216553,309.862335 307.787506,308.358490 308.866638,306.476929 
z"/>
<path fill="#8B69F9" opacity="1.000000" stroke="none" 
	d="
M174.190186,208.302734 
	C174.452682,208.112762 174.890137,208.066422 175.652374,208.086945 
	C175.439819,208.251328 174.902481,208.348831 174.190186,208.302734 
z"/>
<path fill="#8A6BF9" opacity="1.000000" stroke="none" 
	d="
M175.806473,305.701538 
	C175.541733,305.891144 175.103058,305.935577 174.339172,305.910675 
	C174.553497,305.746338 175.093002,305.651337 175.806473,305.701538 
z"/>
</svg>