<svg version="1.1" id="Layer_1" xmlns="http://www.w3.org/2000/svg" xmlns:xlink="http://www.w3.org/1999/xlink" x="0px" y="0px"
	 width="100%" viewBox="0 0 512 512" enable-background="new 0 0 512 512" xml:space="preserve">
<path fill="#3080ED" opacity="1.000000" stroke="none" 
	d="
M289.000000,513.000000 
	C267.979095,513.000000 246.958206,513.000000 225.730682,512.625549 
	C224.679443,511.837250 223.876373,511.231628 222.983978,511.038239 
	C209.049728,508.018280 194.951691,505.619263 181.198792,501.930939 
	C163.415024,497.161682 146.764267,489.446136 130.704269,480.377686 
	C114.877960,471.441223 99.819626,461.312286 86.708717,448.861786 
	C74.532928,437.299347 63.026432,424.845734 52.542175,411.731689 
	C36.425076,391.571838 24.321590,368.951935 15.795765,344.496094 
	C9.684608,326.966614 4.521919,309.226868 2.898519,290.621521 
	C2.846931,290.030304 1.658477,289.538269 1.000003,289.000000 
	C1.000000,267.645782 1.000000,246.291550 1.365071,224.748306 
	C2.491697,220.458893 3.177791,216.342773 4.026957,212.260605 
	C9.873591,184.154160 18.740191,157.221771 32.867840,131.991302 
	C48.649334,103.807243 69.106949,79.634651 93.693153,59.029728 
	C111.685692,43.950748 131.559402,31.586273 153.255676,22.264212 
	C175.614685,12.657395 198.629272,5.614804 222.890335,2.918054 
	C223.655182,2.833036 224.299500,1.663793 225.000000,1.000001 
	C246.020889,1.000000 267.041779,1.000000 288.270660,1.375512 
	C289.490387,2.166156 290.467743,2.787782 291.519470,2.963058 
	C298.584900,4.140564 305.770905,4.778566 312.723328,6.416851 
	C337.333862,12.216136 360.895294,20.770481 382.951660,33.382011 
	C399.303467,42.731720 414.877441,53.230419 428.415802,66.225868 
	C440.047546,77.391144 451.002350,89.400970 461.171997,101.918449 
	C477.792480,122.376160 489.843475,145.608459 498.644501,170.407196 
	C504.683838,187.424332 509.388733,204.845490 511.084900,222.943466 
	C511.154144,223.682327 512.336365,224.316864 513.000000,225.000000 
	C513.000000,246.020889 513.000000,267.041779 512.634521,288.251770 
	C511.499908,292.876282 510.831238,297.331879 509.945465,301.743835 
	C504.128082,330.719940 494.884125,358.448090 479.987579,384.135742 
	C470.968262,399.688751 461.003967,414.683716 448.576935,427.609711 
	C436.818115,439.840729 424.317200,451.534943 411.058868,462.105927 
	C391.497498,477.702332 369.403839,489.333252 345.884979,497.854736 
	C328.155792,504.278442 309.964355,509.276733 291.054413,511.084778 
	C290.315308,511.155396 289.682404,512.336365 289.000000,513.000000 
M358.428680,250.583969 
	C355.686523,242.550339 349.519623,239.960632 341.663361,239.962143 
	C285.186401,239.972900 228.709473,239.967697 172.232529,239.971390 
	C171.233368,239.971451 170.229034,239.961807 169.235855,240.052444 
	C160.897217,240.813370 155.521255,246.245499 154.821823,254.587601 
	C153.765366,267.188080 160.052109,274.012512 172.908218,274.022003 
	C215.724045,274.053650 258.539917,274.035797 301.355774,274.033813 
	C315.183411,274.033203 329.012207,274.130157 342.838318,273.982025 
	C353.200928,273.871063 359.193695,267.675140 359.253143,257.323212 
	C359.264526,255.337845 358.911469,253.350418 358.428680,250.583969 
M426.171997,403.487396 
	C426.700684,399.207184 427.653351,394.930176 427.686096,390.646179 
	C427.845276,369.815125 427.764587,348.982208 427.746979,328.149933 
	C427.745453,326.321381 427.724823,324.473816 427.476440,322.667633 
	C426.151093,313.031464 419.721649,307.773071 409.844360,308.156281 
	C400.169464,308.531677 394.400665,314.043030 393.681396,323.670807 
	C393.532654,325.661499 393.554932,327.667389 393.553986,329.666321 
	C393.545227,348.332031 393.585114,366.997833 393.532623,385.663422 
	C393.507507,394.595001 394.531128,393.477264 385.418640,393.534851 
	C375.752869,393.595917 366.086365,393.543549 356.420197,393.549927 
	C345.920868,393.556854 335.420898,393.507935 324.922455,393.610901 
	C318.100433,393.677826 312.509705,396.066803 309.674347,402.796478 
	C304.285217,415.587372 311.606476,427.503784 325.394653,427.668518 
	C348.056793,427.939331 370.727112,427.945251 393.389160,427.669769 
	C409.259827,427.476898 420.340057,419.202667 426.171997,403.487396 
M86.241074,166.499878 
	C86.391495,175.150879 86.188316,183.827255 86.806885,192.444656 
	C87.281425,199.055374 91.349106,203.354111 97.856567,205.069031 
	C110.852020,208.493790 120.247757,201.630341 120.379677,188.202179 
	C120.584221,167.382172 120.545906,146.557922 120.367569,125.737541 
	C120.332382,121.629364 121.487854,120.315826 125.677773,120.363762 
	C143.832169,120.571487 161.990356,120.474609 180.147064,120.434486 
	C184.305984,120.425293 188.497498,120.487518 192.615570,120.011429 
	C199.142929,119.256821 203.476501,115.128296 205.100601,108.763260 
	C208.406433,95.807320 201.423233,86.392357 188.048035,86.291878 
	C166.227798,86.127945 144.405258,86.182243 122.584076,86.259140 
	C100.431000,86.337212 86.371681,100.395798 86.257027,122.523331 
	C86.182808,136.848495 86.241806,151.174332 86.241074,166.499878 
M86.241180,333.532471 
	C86.241432,352.523102 86.216042,371.513794 86.248474,390.504395 
	C86.288368,413.866058 100.191193,427.719849 123.627510,427.752533 
	C144.450577,427.781555 165.273758,427.780273 186.096725,427.728668 
	C188.578812,427.722534 191.101517,427.528809 193.533310,427.053345 
	C199.673096,425.852875 203.533249,422.099884 205.094971,416.026215 
	C208.431625,403.049744 201.522110,393.728790 188.091629,393.608856 
	C167.936462,393.428925 147.778549,393.554810 127.621811,393.547791 
	C120.457359,393.545288 120.466492,393.541351 120.449707,386.210022 
	C120.401649,365.221985 120.591278,344.229095 120.180122,323.248077 
	C119.997444,313.925903 113.727585,308.567108 104.229637,308.158051 
	C94.525345,307.740051 87.982742,312.793610 86.651543,322.084015 
	C86.159111,325.520721 86.357750,329.056488 86.241180,333.532471 
M393.548798,136.501083 
	C393.550232,153.158981 393.503082,169.817169 393.598297,186.474533 
	C393.615234,189.439758 393.795502,192.530350 394.641052,195.340179 
	C396.922394,202.921234 404.645386,206.987671 413.470459,205.650864 
	C422.618561,204.265091 427.591248,198.726776 427.675812,188.711594 
	C427.868500,165.892212 428.040009,143.064514 427.632141,120.250710 
	C427.292603,101.259781 414.429382,87.259750 395.616638,86.580940 
	C371.827545,85.722580 347.984650,86.195457 324.167206,86.380226 
	C317.152893,86.434647 311.590057,89.633125 309.205475,96.734901 
	C304.862152,109.670197 312.054626,119.990051 325.626648,120.423218 
	C327.457336,120.481644 329.291077,120.450241 331.123383,120.450455 
	C350.279877,120.452644 369.437378,120.555573 388.592041,120.369904 
	C392.593567,120.331108 393.928192,121.630058 393.604156,125.511246 
	C393.327911,128.819687 393.548309,132.169601 393.548798,136.501083 
M279.365631,205.878586 
	C282.011169,205.666977 284.714966,205.733276 287.291504,205.192719 
	C295.661469,203.436661 300.390594,196.473160 299.657104,187.343063 
	C298.920410,178.173676 293.678345,172.124710 285.055054,171.980301 
	C266.246277,171.665314 247.425201,171.704376 228.615631,172.004608 
	C221.249039,172.122192 216.314056,177.032013 214.841187,184.207596 
	C212.180450,197.170273 219.097992,205.771057 232.440140,205.853943 
	C247.759445,205.949081 263.079773,205.877731 279.365631,205.878586 
M250.500076,308.121277 
	C242.528214,308.338226 234.470016,307.905365 226.608124,308.949982 
	C218.307190,310.052887 213.777100,317.227295 214.297348,326.246918 
	C214.824570,335.387482 220.064514,341.799225 228.530289,341.964447 
	C247.500214,342.334656 266.485535,342.282043 285.457855,341.979828 
	C292.801453,341.862854 297.720428,336.891632 299.162872,329.700897 
	C301.730469,316.900787 294.933350,308.298584 281.968262,308.149139 
	C271.813446,308.032104 261.656219,308.122864 250.500076,308.121277 
z"/>
<path fill="#000000" opacity="1.000000" stroke="none" 
	d="
M289.468658,513.000000 
	C289.682404,512.336365 290.315308,511.155396 291.054413,511.084778 
	C309.964355,509.276733 328.155792,504.278442 345.884979,497.854736 
	C369.403839,489.333252 391.497498,477.702332 411.058868,462.105927 
	C424.317200,451.534943 436.818115,439.840729 448.576935,427.609711 
	C461.003967,414.683716 470.968262,399.688751 479.987579,384.135742 
	C494.884125,358.448090 504.128082,330.719940 509.945465,301.743835 
	C510.831238,297.331879 511.499908,292.876282 512.634521,288.720459 
	C513.000000,363.593719 513.000000,438.187408 513.000000,513.000000 
	C438.645905,513.000000 364.291626,513.000000 289.468658,513.000000 
z"/>
<path fill="#000000" opacity="1.000000" stroke="none" 
	d="
M513.000000,224.531342 
	C512.336365,224.316864 511.154144,223.682327 511.084900,222.943466 
	C509.388733,204.845490 504.683838,187.424332 498.644501,170.407196 
	C489.843475,145.608459 477.792480,122.376160 461.171997,101.918449 
	C451.002350,89.400970 440.047546,77.391144 428.415802,66.225868 
	C414.877441,53.230419 399.303467,42.731720 382.951660,33.382011 
	C360.895294,20.770481 337.333862,12.216136 312.723328,6.416851 
	C305.770905,4.778566 298.584900,4.140564 291.519470,2.963058 
	C290.467743,2.787782 289.490387,2.166156 288.739319,1.375512 
	C363.593719,1.000000 438.187408,1.000000 513.000000,1.000000 
	C513.000000,75.354088 513.000000,149.708389 513.000000,224.531342 
z"/>
<path fill="#000000" opacity="1.000000" stroke="none" 
	d="
M1.000003,289.468658 
	C1.658477,289.538269 2.846931,290.030304 2.898519,290.621521 
	C4.521919,309.226868 9.684608,326.966614 15.795765,344.496094 
	C24.321590,368.951935 36.425076,391.571838 52.542175,411.731689 
	C63.026432,424.845734 74.532928,437.299347 86.708717,448.861786 
	C99.819626,461.312286 114.877960,471.441223 130.704269,480.377686 
	C146.764267,489.446136 163.415024,497.161682 181.198792,501.930939 
	C194.951691,505.619263 209.049728,508.018280 222.983978,511.038239 
	C223.876373,511.231628 224.679443,511.837250 225.262024,512.625549 
	C150.406296,513.000000 75.812599,513.000000 1.000000,513.000000 
	C1.000000,438.645905 1.000000,364.291626 1.000003,289.468658 
z"/>
<path fill="#000000" opacity="1.000000" stroke="none" 
	d="
M224.531342,1.000001 
	C224.299500,1.663793 223.655182,2.833036 222.890335,2.918054 
	C198.629272,5.614804 175.614685,12.657395 153.255676,22.264212 
	C131.559402,31.586273 111.685692,43.950748 93.693153,59.029728 
	C69.106949,79.634651 48.649334,103.807243 32.867840,131.991302 
	C18.740191,157.221771 9.873591,184.154160 4.026957,212.260605 
	C3.177791,216.342773 2.491697,220.458893 1.365071,224.279648 
	C1.000000,149.739456 1.000000,75.478920 1.000000,1.000000 
	C75.354088,1.000000 149.708389,1.000000 224.531342,1.000001 
z"/>
<path fill="#FFFFFF" opacity="1.000000" stroke="none" 
	d="
M358.577637,250.973953 
	C358.911469,253.350418 359.264526,255.337845 359.253143,257.323212 
	C359.193695,267.675140 353.200928,273.871063 342.838318,273.982025 
	C329.012207,274.130157 315.183411,274.033203 301.355774,274.033813 
	C258.539917,274.035797 215.724045,274.053650 172.908218,274.022003 
	C160.052109,274.012512 153.765366,267.188080 154.821823,254.587601 
	C155.521255,246.245499 160.897217,240.813370 169.235855,240.052444 
	C170.229034,239.961807 171.233368,239.971451 172.232529,239.971390 
	C228.709473,239.967697 285.186401,239.972900 341.663361,239.962143 
	C349.519623,239.960632 355.686523,242.550339 358.577637,250.973953 
z"/>
<path fill="#FDFEFF" opacity="1.000000" stroke="none" 
	d="
M426.076874,403.878174 
	C420.340057,419.202667 409.259827,427.476898 393.389160,427.669769 
	C370.727112,427.945251 348.056793,427.939331 325.394653,427.668518 
	C311.606476,427.503784 304.285217,415.587372 309.674347,402.796478 
	C312.509705,396.066803 318.100433,393.677826 324.922455,393.610901 
	C335.420898,393.507935 345.920868,393.556854 356.420197,393.549927 
	C366.086365,393.543549 375.752869,393.595917 385.418640,393.534851 
	C394.531128,393.477264 393.507507,394.595001 393.532623,385.663422 
	C393.585114,366.997833 393.545227,348.332031 393.553986,329.666321 
	C393.554932,327.667389 393.532654,325.661499 393.681396,323.670807 
	C394.400665,314.043030 400.169464,308.531677 409.844360,308.156281 
	C419.721649,307.773071 426.151093,313.031464 427.476440,322.667633 
	C427.724823,324.473816 427.745453,326.321381 427.746979,328.149933 
	C427.764587,348.982208 427.845276,369.815125 427.686096,390.646179 
	C427.653351,394.930176 426.700684,399.207184 426.076874,403.878174 
z"/>
<path fill="#FDFEFF" opacity="1.000000" stroke="none" 
	d="
M86.241089,165.999878 
	C86.241806,151.174332 86.182808,136.848495 86.257027,122.523331 
	C86.371681,100.395798 100.431000,86.337212 122.584076,86.259140 
	C144.405258,86.182243 166.227798,86.127945 188.048035,86.291878 
	C201.423233,86.392357 208.406433,95.807320 205.100601,108.763260 
	C203.476501,115.128296 199.142929,119.256821 192.615570,120.011429 
	C188.497498,120.487518 184.305984,120.425293 180.147064,120.434486 
	C161.990356,120.474609 143.832169,120.571487 125.677773,120.363762 
	C121.487854,120.315826 120.332382,121.629364 120.367569,125.737541 
	C120.545906,146.557922 120.584221,167.382172 120.379677,188.202179 
	C120.247757,201.630341 110.852020,208.493790 97.856567,205.069031 
	C91.349106,203.354111 87.281425,199.055374 86.806885,192.444656 
	C86.188316,183.827255 86.391495,175.150879 86.241089,165.999878 
z"/>
<path fill="#FDFEFF" opacity="1.000000" stroke="none" 
	d="
M86.241196,333.039764 
	C86.357750,329.056488 86.159111,325.520721 86.651543,322.084015 
	C87.982742,312.793610 94.525345,307.740051 104.229637,308.158051 
	C113.727585,308.567108 119.997444,313.925903 120.180122,323.248077 
	C120.591278,344.229095 120.401649,365.221985 120.449707,386.210022 
	C120.466492,393.541351 120.457359,393.545288 127.621811,393.547791 
	C147.778549,393.554810 167.936462,393.428925 188.091629,393.608856 
	C201.522110,393.728790 208.431625,403.049744 205.094971,416.026215 
	C203.533249,422.099884 199.673096,425.852875 193.533310,427.053345 
	C191.101517,427.528809 188.578812,427.722534 186.096725,427.728668 
	C165.273758,427.780273 144.450577,427.781555 123.627510,427.752533 
	C100.191193,427.719849 86.288368,413.866058 86.248474,390.504395 
	C86.216042,371.513794 86.241432,352.523102 86.241196,333.039764 
z"/>
<path fill="#FDFEFF" opacity="1.000000" stroke="none" 
	d="
M393.548889,136.001129 
	C393.548309,132.169601 393.327911,128.819687 393.604156,125.511246 
	C393.928192,121.630058 392.593567,120.331108 388.592041,120.369904 
	C369.437378,120.555573 350.279877,120.452644 331.123383,120.450455 
	C329.291077,120.450241 327.457336,120.481644 325.626648,120.423218 
	C312.054626,119.990051 304.862152,109.670197 309.205475,96.734901 
	C311.590057,89.633125 317.152893,86.434647 324.167206,86.380226 
	C347.984650,86.195457 371.827545,85.722580 395.616638,86.580940 
	C414.429382,87.259750 427.292603,101.259781 427.632141,120.250710 
	C428.040009,143.064514 427.868500,165.892212 427.675812,188.711594 
	C427.591248,198.726776 422.618561,204.265091 413.470459,205.650864 
	C404.645386,206.987671 396.922394,202.921234 394.641052,195.340179 
	C393.795502,192.530350 393.615234,189.439758 393.598297,186.474533 
	C393.503082,169.817169 393.550232,153.158981 393.548889,136.001129 
z"/>
<path fill="#FDFEFF" opacity="1.000000" stroke="none" 
	d="
M278.882629,205.878632 
	C263.079773,205.877731 247.759445,205.949081 232.440140,205.853943 
	C219.097992,205.771057 212.180450,197.170273 214.841187,184.207596 
	C216.314056,177.032013 221.249039,172.122192 228.615631,172.004608 
	C247.425201,171.704376 266.246277,171.665314 285.055054,171.980301 
	C293.678345,172.124710 298.920410,178.173676 299.657104,187.343063 
	C300.390594,196.473160 295.661469,203.436661 287.291504,205.192719 
	C284.714966,205.733276 282.011169,205.666977 278.882629,205.878632 
z"/>
<path fill="#FDFEFF" opacity="1.000000" stroke="none" 
	d="
M251.000061,308.121277 
	C261.656219,308.122864 271.813446,308.032104 281.968262,308.149139 
	C294.933350,308.298584 301.730469,316.900787 299.162872,329.700897 
	C297.720428,336.891632 292.801453,341.862854 285.457855,341.979828 
	C266.485535,342.282043 247.500214,342.334656 228.530289,341.964447 
	C220.064514,341.799225 214.824570,335.387482 214.297348,326.246918 
	C213.777100,317.227295 218.307190,310.052887 226.608124,308.949982 
	C234.470016,307.905365 242.528214,308.338226 251.000061,308.121277 
z"/>
</svg>